# xmcd CD database file
#
# Track frame offsets:
#	150
#	28509
#	42637
#
# Disc length: 1180 seconds
#
# Revision: 0
# Processed by: cddbd v1.5.2PL0 Copyright (c) Steve Scherf et al.
# Submitted via: CDex 1.70beta3
#
DISCID=20049a03
DTITLE=コンプティーク2008年9月号付録 - 夢見る淑女
DYEAR=2008
DGENRE=ドラマCD
TTITLE0=夢見る淑女
TTITLE1=夢見る淑女
TTITLE2=夢見る淑女
EXTD=YEAR: 2008
EXTT0=
EXTT1=
EXTT2=
PLAYORDER=
